<svg width="20" height="20" viewBox="0 0 20 20" fill="none" xmlns="http://www.w3.org/2000/svg">
<path d="M16.3533 4.49168C15.1847 3.95552 13.9317 3.56051 12.6216 3.33426C12.5977 3.3299 12.5739 3.34081 12.5616 3.36263C12.4004 3.64925 12.2219 4.02318 12.0969 4.31708C10.6878 4.10612 9.28588 4.10612 7.90564 4.31708C7.78061 4.01664 7.59563 3.64925 7.43375 3.36263C7.42146 3.34154 7.39763 3.33062 7.37377 3.33426C6.06435 3.55978 4.81131 3.9548 3.64208 4.49168C3.63196 4.49605 3.62328 4.50333 3.61753 4.51278C1.24076 8.06361 0.58967 11.5272 0.909076 14.9478C0.910521 14.9645 0.919915 14.9805 0.932923 14.9907C2.50104 16.1423 4.02003 16.8414 5.51082 17.3048C5.53468 17.3121 5.55996 17.3034 5.57514 17.2837C5.92778 16.8021 6.24214 16.2943 6.51166 15.7604C6.52757 15.7291 6.51238 15.692 6.47988 15.6796C5.98126 15.4905 5.50648 15.2599 5.04977 14.998C5.01365 14.9769 5.01076 14.9252 5.04399 14.9005C5.1401 14.8285 5.23623 14.7535 5.328 14.6779C5.3446 14.6641 5.36774 14.6611 5.38726 14.6699C8.38763 16.0397 11.6359 16.0397 14.6008 14.6699C14.6204 14.6604 14.6435 14.6633 14.6608 14.6771C14.7526 14.7528 14.8487 14.8285 14.9456 14.9005C14.9788 14.9252 14.9766 14.9769 14.9405 14.998C14.4838 15.2649 14.009 15.4905 13.5097 15.6789C13.4772 15.6913 13.4627 15.7291 13.4786 15.7604C13.7539 16.2936 14.0683 16.8014 14.4144 17.283C14.4289 17.3034 14.4549 17.3121 14.4787 17.3048C15.9767 16.8414 17.4957 16.1423 19.0638 14.9907C19.0776 14.9805 19.0863 14.9652 19.0877 14.9485C19.47 10.9939 18.4474 7.55875 16.3771 4.5135C16.372 4.50333 16.3634 4.49605 16.3533 4.49168ZM6.95972 12.865C6.0564 12.865 5.31209 12.0357 5.31209 11.0172C5.31209 9.99871 6.04197 9.1694 6.95972 9.1694C7.88467 9.1694 8.62178 10.006 8.60732 11.0172C8.60732 12.0357 7.87744 12.865 6.95972 12.865ZM13.0515 12.865C12.1482 12.865 11.4039 12.0357 11.4039 11.0172C11.4039 9.99871 12.1338 9.1694 13.0515 9.1694C13.9765 9.1694 14.7136 10.006 14.6991 11.0172C14.6991 12.0357 13.9765 12.865 13.0515 12.865Z" fill="#5865F2"/>
</svg>
