<svg width="20" height="21" viewBox="0 0 20 21" fill="none" xmlns="http://www.w3.org/2000/svg">
<path d="M17.0749 5.69266L8.99636 1.00265C8.80702 0.892784 8.57393 0.892784 8.38459 1.00265L0.306007 5.69266C0.116665 5.80276 0 6.0059 0 6.22563L0 15.6059C0 15.8256 0.116665 16.029 0.306007 16.1389L8.38459 20.8291C8.47926 20.8839 8.58469 20.9116 8.69036 20.9116C8.79626 20.9116 8.90169 20.8839 8.99636 20.8291L17.0749 16.1389C17.2643 16.029 17.381 15.8256 17.381 15.6059V6.22563C17.381 6.0059 17.2643 5.80276 17.0749 5.69266ZM9.30237 19.2302V16.4548C9.30237 16.1148 9.0284 15.8393 8.69036 15.8393C8.35255 15.8393 8.07858 16.1148 8.07858 16.4548V19.2302L8.69036 15.8393C8.79522 20.1563 8.78503 15.8941 8.69036 15.8393C8.59569 15.8941 8.79626 15.8393 8.69036 15.8393L9.30237 19.2302Z" fill="url(#paint0_linear)"/>
<path d="M17.0749 5.69266L8.99636 1.00265C8.80702 0.892784 8.57393 0.892784 8.38459 1.00265L0.306007 5.69266C0.116665 5.80276 0 6.0059 0 6.22563L0 15.6059C0 15.8256 0.116665 16.029 0.306007 16.1389L8.38459 20.8291C8.47926 20.8839 8.58469 20.9116 8.69036 20.9116C8.79626 20.9116 8.90169 20.8839 8.99636 20.8291L17.0749 16.1389C17.2643 16.029 17.381 15.8256 17.381 15.6059V6.22563C17.381 6.0059 17.2643 5.80276 17.0749 5.69266ZM8.69036 2.24625L15.5449 6.22563L8.69036 10.2053L1.83604 6.22563L8.69036 2.24625ZM9.30237 19.2302V16.4548C9.30237 16.1148 9.0284 15.8393 8.69036 15.8393C8.35255 15.8393 8.07858 16.1148 8.07858 16.4548V19.2302L1.22403 15.2506L1.22403 7.29158L8.38459 11.4489C8.47926 11.5037 8.58469 11.5313 8.69036 11.5313C8.79626 11.5313 8.90169 11.5037 8.99636 11.4489L16.1569 7.29158V15.2506L9.30237 19.2302Z" fill="#CACACA"/>
<defs>
<linearGradient id="paint0_linear" x1="8.69048" y1="0.92025" x2="8.69048" y2="20.9116" gradientUnits="userSpaceOnUse">
<stop/>
<stop offset="1" stop-opacity="0"/>
</linearGradient>
</defs>
</svg>
