<svg width="20" height="20" viewBox="0 0 20 20" fill="none" xmlns="http://www.w3.org/2000/svg">
<path d="M1.74159 6.13288L10.0003 1.64068L18.2588 6.13288L18.2588 15.1173L10.0003 19.6095L1.74159 15.1173L1.74159 6.13288Z" fill="white"/>
<path d="M8.67359 1.64084C8.67359 0.950539 9.26766 0.390848 10.0004 0.390848C10.7331 0.390848 11.3271 0.950539 11.3271 1.64085C11.3271 2.33115 10.7331 2.89084 10.0004 2.89084C9.26766 2.89084 8.67359 2.33115 8.67359 1.64084Z" fill="#F5737F"/>
<path d="M0.414787 15.1168C0.414787 14.4265 1.00886 13.8669 1.74157 13.8669C2.47429 13.8669 3.06836 14.4265 3.06836 15.1168C3.06836 15.8072 2.47429 16.3668 1.74157 16.3668C1.00886 16.3668 0.414787 15.8072 0.414787 15.1168Z" fill="#FFCB7C"/>
<path d="M16.9324 15.1168C16.9324 14.4265 17.5265 13.8669 18.2592 13.8669C18.9919 13.8669 19.5859 14.4265 19.5859 15.1168C19.5859 15.8072 18.9919 16.3668 18.2592 16.3668C17.5265 16.3668 16.9324 15.8072 16.9324 15.1168Z" fill="#CFF1FB"/>
<path d="M9.99985 16.5793L15.4727 13.6024L15.4727 7.6486L9.99985 4.6716L4.52689 7.6486L4.52689 13.6024L9.99985 16.5793Z" fill="#E2F1A1"/>
<path d="M4.52703 7.64846L4.52703 13.6023L10 10.6253L10 4.67147L4.52703 7.64846Z" fill="#CBE558"/>
<path d="M15.4727 7.64847L15.4727 13.6023L9.99985 10.6253L9.99986 4.67147L15.4727 7.64847Z" fill="#D8EC84"/>
<path d="M4.26947e-07 15.1163C3.47856e-07 16.021 0.781134 16.7569 1.7414 16.7569C2.23441 16.7569 2.67996 16.5625 2.99708 16.2513L9.79277 19.9477C9.92104 20.0174 10.079 20.0174 10.2072 19.9477L17.0031 16.2513C17.3202 16.5625 17.7656 16.7569 18.2586 16.7569C19.2189 16.7569 20 16.021 20 15.1163C20 14.3463 19.4339 13.6989 18.6732 13.5231L18.6732 6.13282C18.6732 5.99336 18.5942 5.86442 18.4659 5.79454L11.6723 2.09915C11.7173 1.95359 11.742 1.79978 11.742 1.64063C11.742 0.736085 10.9608 -7.90229e-07 10.0006 -8.74178e-07C9.04047 -9.58113e-07 8.25933 0.736085 8.25933 1.64063C8.25933 1.79962 8.28379 1.95313 8.32881 2.0987L1.53409 5.79453C1.40582 5.86427 1.32678 5.99336 1.32678 6.13282L1.32678 13.5231C0.566052 13.6989 4.94259e-07 14.3463 4.26947e-07 15.1163ZM19.1708 15.1163C19.1708 15.5902 18.7617 15.9757 18.2586 15.9757C17.7557 15.9757 17.3466 15.5902 17.3466 15.1163C17.3466 14.6425 17.7557 14.2569 18.2586 14.2569C18.7617 14.2569 19.1708 14.6425 19.1708 15.1163ZM10.0006 0.781251C10.5036 0.781251 10.9127 1.16669 10.9127 1.64063C10.9127 2.11441 10.5036 2.5 10.0006 2.5C9.49768 2.5 9.08841 2.11441 9.08841 1.64063C9.08841 1.16669 9.49768 0.781251 10.0006 0.781251ZM8.74408 2.77482C9.06136 3.08655 9.50707 3.28125 10.0006 3.28125C10.4937 3.28125 10.9395 3.08671 11.2566 2.77527L17.844 6.35835L17.844 13.5231C17.0834 13.6989 16.5174 14.3463 16.5174 15.1163C16.5174 15.2756 16.542 15.4296 16.5872 15.5754L10.0001 19.1584L3.41283 15.5754C3.45802 15.4296 3.48263 15.2758 3.48263 15.1163C3.48263 14.3463 2.91658 13.6989 2.15602 13.5231L2.15602 6.35835L8.74408 2.77482ZM1.7414 14.2569C2.24428 14.2569 2.65356 14.6425 2.65356 15.1163C2.65356 15.5902 2.24428 15.9757 1.7414 15.9757C1.23835 15.9757 0.829237 15.5902 0.829237 15.1163C0.829237 14.6425 1.23835 14.2569 1.7414 14.2569Z" fill="black"/>
<path d="M4.32001 13.9407L9.79297 16.9175C9.92124 16.9872 10.0792 16.9872 10.2074 16.9175L15.6804 13.9407C15.8087 13.8708 15.8877 13.7418 15.8877 13.6024L15.8877 7.64853C15.8877 7.50907 15.8087 7.37998 15.6804 7.31025L10.2074 4.33325C10.1433 4.29846 10.0719 4.28091 10.0003 4.28091C9.92853 4.28091 9.85711 4.29846 9.79297 4.33325L4.32001 7.31025C4.19174 7.37998 4.1127 7.50907 4.1127 7.64853L4.1127 13.6024C4.1127 13.7418 4.19174 13.8708 4.32001 13.9407ZM10.0003 16.1282L5.35656 13.6024L10.0003 11.0764L14.6438 13.6024L10.0003 16.1282ZM9.58566 5.34811L9.58566 7.10974C9.58566 7.3255 9.77127 7.50037 10.0003 7.50037C10.2291 7.50037 10.4147 7.3255 10.4147 7.10974L10.4147 5.34811L15.0585 7.87406L15.0585 12.9258L10.2074 10.2871C10.1433 10.2523 10.0719 10.2348 10.0003 10.2348C9.92853 10.2348 9.85711 10.2523 9.79297 10.2871L4.94194 12.9258L4.94194 7.87406L9.58566 5.34811Z" fill="black"/>
<path d="M10.0009 9.25833C10.1104 9.25833 10.217 9.21667 10.2945 9.14389C10.3716 9.07126 10.416 8.97055 10.416 8.86771C10.416 8.76502 10.3716 8.66431 10.2945 8.59168C10.217 8.51889 10.1104 8.47708 10.0009 8.47708C9.89191 8.47708 9.78485 8.51889 9.70776 8.59168C9.63067 8.66431 9.58629 8.76502 9.58629 8.86771C9.58629 8.97055 9.63067 9.07126 9.70776 9.14389C9.78485 9.21667 9.89191 9.25833 10.0009 9.25833Z" fill="black"/>
</svg>
