<svg width="20" height="20" viewBox="0 0 20 20" fill="none" xmlns="http://www.w3.org/2000/svg">
<path d="M10 20C4.47715 20 0 15.5229 0 10C0 4.47715 4.47715 0 10 0L10.7812 10L10 20Z" fill="#FFCB7C"/>
<path d="M10 0C15.5229 0 20 4.47715 20 10C20 15.5229 15.5229 20 10 20V0Z" fill="#FFCB7C"/>
<path d="M9.9979 17.5062C5.85118 17.5062 2.48956 14.1447 2.48956 9.99791C2.48956 5.85115 5.85118 2.48957 9.9979 2.48957L10.3884 9.99791L9.9979 17.5062Z" fill="#0B799D"/>
<path d="M9.99994 2.48964C14.1467 2.48964 17.5083 5.85121 17.5083 9.99797C17.5083 14.1447 14.1467 17.5063 9.99994 17.5063V2.48964Z" fill="#0B799D"/>
<path d="M7.40148 7.40151C6.25683 8.54616 6.02671 10.2643 6.71093 11.6396H5.74109V12.8115H8.40171V11.9414L8.23007 11.7697C7.25425 10.7939 7.25425 9.20601 8.23007 8.23015C8.718 7.74222 9.35894 7.49823 9.99988 7.49823L10.3905 6.96608L9.99988 6.3269C9.0589 6.32694 8.11789 6.68515 7.40148 7.40151Z" fill="#FFCB7C"/>
<path d="M13.2889 11.6397C13.9732 10.2644 13.743 8.54627 12.5984 7.40162C11.882 6.68521 10.941 6.32701 9.99994 6.32701V7.49834C10.6409 7.49834 11.2818 7.74232 11.7697 8.23025C12.7456 9.20611 12.7456 10.794 11.7697 11.7698L11.5981 11.9415V12.8116H14.2587V11.6397H13.2889Z" fill="#FFCB7C"/>
</svg>
