<svg width="20" height="20" viewBox="0 0 20 20" fill="none" xmlns="http://www.w3.org/2000/svg">
<path d="M19.1666 4.26344C18.4849 4.5625 17.7584 4.76073 17.001 4.85698C17.7802 4.39177 18.3749 3.66073 18.6545 2.77958C17.928 3.21271 17.1259 3.51865 16.2711 3.68938C15.5813 2.9549 14.5982 2.5 13.5257 2.5C11.4449 2.5 9.76967 4.18896 9.76967 6.25948C9.76967 6.5574 9.79488 6.84385 9.85675 7.11656C6.73206 6.96417 3.96717 5.46656 2.10977 3.18521C1.7855 3.74781 1.59529 4.39177 1.59529 5.085C1.59529 6.38667 2.2656 7.54052 3.26477 8.20854C2.66092 8.19708 2.06852 8.02177 1.56665 7.74563C1.56665 7.75708 1.56665 7.77198 1.56665 7.78687C1.56665 9.61333 2.86946 11.1304 4.5779 11.4799C4.27196 11.5635 3.93852 11.6036 3.59248 11.6036C3.35185 11.6036 3.10894 11.5899 2.88092 11.5395C3.3679 13.0279 4.74977 14.1222 6.3929 14.1577C5.11415 15.158 3.4905 15.7607 1.73279 15.7607C1.42456 15.7607 1.12894 15.747 0.833313 15.7092C2.49821 16.7828 4.47133 17.3958 6.59915 17.3958C13.5154 17.3958 17.2966 11.6667 17.2966 6.70062C17.2966 6.53448 17.2909 6.37406 17.2829 6.21479C18.0288 5.68542 18.6556 5.02427 19.1666 4.26344Z" fill="#03A9F4"/>
</svg>
